<svg width="68" height="55" fill="none" xmlns="http://www.w3.org/2000/svg"><path fill="#fff" d="M0 0h68v55H0z"/><mask id="a" style="mask-type:luminance" maskUnits="userSpaceOnUse" x="1" y="9" width="44" height="46"><path d="M1 54.447h43.481V9.463H1v44.984z" fill="#fff"/></mask><g mask="url(#a)"><mask id="b" style="mask-type:luminance" maskUnits="userSpaceOnUse" x="1" y="9" width="44" height="46"><path d="M1 54.447h43.481V9.463H1v44.984z" fill="#fff"/></mask><g mask="url(#b)"><path d="M18.709 11.361c.177.177-.644-.064-.709.139-.055.173-.173.54 0 .595.173.055.945-.422 1-.595.133-.418.601-.027.656-.464a.558.558 0 1 0-.947.325zm.296.393a8.67 8.67 0 0 1 .422-.348s.125-.072.188-.218c.141-.327.044-.689-.188-.947-.247-.277-.606-.43-.957-.525a1.216 1.216 0 1 0 .535 2.038zm-1.716 2.003c.55-.68 1.092-1.388 1.716-2.003a1.216 1.216 0 0 0-.535-2.038c-.614-.168-1.274-.044-1.864.16-.683.238-1.322.599-1.925.994a1.969 1.969 0 1 0 2.608 2.887zm-2.41 3.313a40.925 40.925 0 0 1 2.41-3.313 1.969 1.969 0 0 0-2.608-2.887 25.77 25.77 0 0 0-3.697 2.96 2.55 2.55 0 1 0 3.895 3.24zm-1.295 2.19c.097-.244.237-.476.368-.703.292-.506.607-.998.927-1.487a2.55 2.55 0 0 0-3.895-3.24c-.802.768-1.616 1.534-2.359 2.36a2.963 2.963 0 1 0 4.96 3.07zm-.644 2.18c.186-.73.366-1.477.644-2.18a2.963 2.963 0 0 0-4.959-3.07c-.828.923-1.368 2.088-1.832 3.225a3.244 3.244 0 1 0 6.147 2.026zm-.346 1.628c0 .078.003-.01.007-.037.013-.109.032-.218.052-.326.078-.425.18-.846.287-1.264a3.244 3.244 0 0 0-6.147-2.026c-.36.88-.73 1.77-.989 2.688a3.46 3.46 0 1 0 6.79.965zM5.75 25.392a3.573 3.573 0 1 0 6.97-1.567c-.06-.243-.13-.504-.127-.756a3.46 3.46 0 0 0-6.79-.966c-.3 1.07-.27 2.206-.053 3.29zm0 0c.2.993.5 1.994 1.147 2.794a3.595 3.595 0 0 0 5.914-4.049 3.245 3.245 0 0 1-.09-.312 3.573 3.573 0 0 0-6.97 1.567zm1.147 2.794c.632.784 1.532 1.247 2.495 1.48.556.135 1.126.208 1.694.261a3.567 3.567 0 0 0 .797-7.088 10.239 10.239 0 0 1-.496-.077l.002-.003a3.595 3.595 0 0 0-4.492 5.427zm4.19 1.741c1.993.187 3.953-.515 5.664-1.485a3.116 3.116 0 0 0-2.05-5.783c-.914.152-1.89.301-2.818.18a3.567 3.567 0 1 0-.796 7.088zm5.664-1.485c1.765-1 3.612-1.857 5.46-2.69a2.36 2.36 0 0 0-1.567-4.436c-1.963.514-3.94 1.009-5.943 1.343a3.116 3.116 0 1 0 2.05 5.783zm5.46-2.69c2.796-1.259 5.67-2.34 8.563-3.354a1.895 1.895 0 0 0-1.165-3.605c-2.977.88-5.962 1.737-8.965 2.523a2.36 2.36 0 1 0 1.567 4.436zm8.563-3.354c2.812-.986 5.62-1.993 8.388-3.1a1.76 1.76 0 1 0-1.308-3.268c-2.69 1.077-5.467 1.942-8.244 2.763a1.895 1.895 0 1 0 1.164 3.605zm8.388-3.1a55.638 55.638 0 0 1 2.456-.935c.228-.08.457-.157.69-.22.057-.016.227-.037.073-.029a1.673 1.673 0 0 0 .31-3.296c-.706-.172-1.46.035-2.138.237-.917.273-1.812.62-2.699.975a1.76 1.76 0 1 0 1.308 3.267zm3.302-.254c.43-.394.874-.801 1.212-1.28.267-.376.438-.815.418-1.282-.035-.808-.629-1.476-1.404-1.664a1.673 1.673 0 0 0-2.045 1.9 7.96 7.96 0 0 1-.27.345 1.443 1.443 0 0 0 2.09 1.981zm-4.977 4.079c1.692-1.314 3.397-2.631 4.977-4.079a1.443 1.443 0 1 0-2.089-1.98c-.468.569-1.072 1.03-1.668 1.456-.96.684-1.984 1.28-3.02 1.84a1.655 1.655 0 1 0 1.8 2.763zm-6.593 5.169a842.69 842.69 0 0 1 6.593-5.17 1.655 1.655 0 0 0-1.8-2.762 296.071 296.071 0 0 0-7.383 4.12 2.31 2.31 0 1 0 2.59 3.812zm-4.452 3.599c1.454-1.235 2.956-2.414 4.452-3.599a2.31 2.31 0 0 0-2.59-3.811c-1.742 1.005-3.508 2.006-5.151 3.168a2.686 2.686 0 1 0 3.289 4.242zm-4.836 4.552c1.008-.98 2.02-1.958 3.044-2.922.588-.553 1.176-1.108 1.792-1.63a2.686 2.686 0 0 0-3.29-4.242c-.782.554-1.504 1.194-2.216 1.834a111.68 111.68 0 0 0-3.182 3 2.762 2.762 0 0 0 3.852 3.96zm-6.36 6.675c2.019-2.32 4.157-4.532 6.36-6.675a2.762 2.762 0 0 0-3.852-3.96c-2.3 2.238-4.547 4.53-6.703 6.906a2.807 2.807 0 1 0 4.196 3.728zm-4.997 5.538c1.713-1.803 3.365-3.663 4.998-5.538a2.806 2.806 0 0 0-4.196-3.729 314.588 314.588 0 0 1-4.935 5.34 2.85 2.85 0 1 0 4.133 3.927zm-3.46 3.468c1.2-1.107 2.336-2.285 3.46-3.468a2.85 2.85 0 1 0-4.133-3.928c-1.13 1.189-2.253 2.39-3.291 3.661a2.73 2.73 0 0 0 3.964 3.734zm-1.718 1.54c.596-.485 1.154-1.02 1.718-1.54a2.73 2.73 0 1 0-3.964-3.735c-.352.431-.696.871-1.001 1.337-.318.484-.597 1.007-.706 1.58a2.45 2.45 0 0 0 3.953 2.357zm-.433.424a2.093 2.093 0 0 0 1.323-2.05 2.45 2.45 0 0 0-4.843-.731 2.647 2.647 0 0 0 .315 1.851 2.438 2.438 0 0 0 1.914 1.172c.449.03.878-.079 1.291-.242zm0 0c.726-.286 1.413-.682 2.095-1.058a1.77 1.77 0 0 0-1.457-3.214 7.378 7.378 0 0 1-.646.205c-.07.018-.14.035-.212.049-.112.022-.152.012-.282-.005a2.093 2.093 0 1 0 .502 4.023zm2.057-1.038c.556-.29 1.08-.641 1.595-.997a58.334 58.334 0 0 0 2.019-1.47c2.093-1.584 4.134-3.235 6.165-4.896a.716.716 0 0 0-.793-1.184 335.477 335.477 0 0 1-6.9 3.64c-1.16.59-2.328 1.215-3.544 1.688a1.77 1.77 0 1 0 1.458 3.22z" fill="#000"/></g></g><mask id="c" style="mask-type:luminance" maskUnits="userSpaceOnUse" x="19" y="32" width="49" height="19"><path d="M20 50.572h47.01v-17.92H20v17.92z" fill="#fff"/></mask><g mask="url(#c)"><mask id="d" style="mask-type:luminance" maskUnits="userSpaceOnUse" x="19" y="32" width="49" height="19"><path d="M20 50.572h47.01v-17.92H20v17.92z" fill="#fff"/></mask><g mask="url(#d)"><path d="M39.476 38.72c.523-.415 1.047-.828 1.568-1.246a.522.522 0 1 0-.817-.589c.013-.035-.051.065-.063.08-.075.09-.158.174-.242.255-.308.297-.64.567-.975.832a.425.425 0 1 0 .529.667zm1.516-1.21c.335-.207.52-.607.658-.96a.744.744 0 1 0-1.436-.226c.011.197.04.426-.006.622a.522.522 0 0 0 .784.565zm-.82-1.601c-.038-.072-.007-.003 0 .037a2.9 2.9 0 0 1 .042.378.744.744 0 0 0 1.436.226c.122-.316.249-.646.287-.985a.942.942 0 1 0-1.764.344zm-.246.055c.085.026.169.054.252.085.044.016.112.031.146.066a.942.942 0 0 0 1.613-.55c.071-.64-.389-1.183-.815-1.602a1.2 1.2 0 1 0-1.196 2zm-.608-.124c.185-.02.429.068.608.123a1.2 1.2 0 0 0 1.196-2c-.4-.392-.842-.763-1.358-.992a1.503 1.503 0 1 0-.446 2.87zm-2.665.778a75.093 75.093 0 0 1 1.96-.593c.188-.054.377-.107.568-.153.02-.005.188-.037.137-.032a1.503 1.503 0 0 0 .446-2.869c-.489-.216-1.057-.227-1.584-.235-.74-.012-1.48.022-2.22.063a1.956 1.956 0 1 0 .693 3.82zm-4.716 2.242c1.478-.922 3.05-1.719 4.716-2.242a1.956 1.956 0 0 0-.693-3.82c-2.195.12-4.343.717-6.359 1.575a2.537 2.537 0 1 0 2.336 4.487zm-3.674 3.025c1.032-1.213 2.329-2.187 3.674-3.025a2.536 2.536 0 0 0-2.336-4.487c-1.97.84-3.875 1.877-5.534 3.239a3.007 3.007 0 1 0 4.197 4.273zm-1.384 2.16c.079-.279.223-.541.372-.789.293-.487.644-.939 1.012-1.371a3.007 3.007 0 0 0-4.197-4.273c-1.468 1.204-2.82 2.689-3.423 4.524a3.261 3.261 0 1 0 6.236 1.909zm-5.869 3.052a3.293 3.293 0 0 0 5.83-2.888c.008-.053.023-.109.039-.164a3.261 3.261 0 0 0-6.236-1.909c-.228.694-.393 1.415-.42 2.146-.034.995.21 1.996.788 2.815zm0 0a4.428 4.428 0 0 0 2.3 1.654c.704.22 1.449.27 2.18.202a3.11 3.11 0 0 0 .518-6.099h.004a3.293 3.293 0 0 0-5.002 4.243zm4.48 1.855c1.174-.111 2.314-.476 3.4-.925a2.73 2.73 0 0 0-1.447-5.224c-.477.071-1.025.152-1.502.034a3.11 3.11 0 1 0-.452 6.115zm3.4-.925c.924-.382 1.903-.8 2.664-1.465a2.328 2.328 0 0 0-1.737-4.071c-.795.07-1.586.194-2.374.312a2.73 2.73 0 1 0 1.447 5.224zm2.664-1.465c.503-.441 1.082-.81 1.634-1.185a2.047 2.047 0 0 0-2.142-3.483c-.326.18-.657.354-1 .497a2.852 2.852 0 0 1-.267.099c-.221.067.74-.173-.258.046a2.328 2.328 0 1 0 2.033 4.026zm1.634-1.185c1.307-.89 2.573-1.84 3.832-2.795a1.865 1.865 0 0 0-2.144-3.049c-1.255.819-2.519 1.635-3.83 2.36a2.047 2.047 0 1 0 2.142 3.484zm3.832-2.795c1.33-1.009 2.652-2.036 3.906-3.138a1.69 1.69 0 0 0-2.134-2.616c-1.265.957-2.587 1.84-3.916 2.705a1.865 1.865 0 1 0 2.144 3.049zm3.906-3.138 1.54-1.352a1.614 1.614 0 0 0-2.04-2.5l-1.634 1.236a1.69 1.69 0 1 0 2.134 2.616zm1.54-1.352.033-.03.001.003a1.62 1.62 0 0 0 .586-1.518 1.605 1.605 0 0 0-.777-1.13 1.638 1.638 0 0 0-1.702.048c-.062.04-.121.082-.18.127a1.614 1.614 0 1 0 2.039 2.5zm-.123.176.343-.378a1.603 1.603 0 1 0-2.617-1.803l-.23.455a1.534 1.534 0 0 0 2.504 1.726zm-2.83 4.514a246.738 246.738 0 0 1 2.077-3.358c.197-.311.395-.622.6-.928.099-.148.205-.276.287-.399a1.535 1.535 0 1 0-2.639-1.555c.091-.179-.138.171-.17.212-.212.272-.43.54-.65.805a193 193 0 0 1-2.55 3.004 1.89 1.89 0 1 0 3.045 2.22zm-2.77 4.737c.005-.011.138-.271.182-.353.172-.322.354-.639.536-.955a162.824 162.824 0 0 1 2.052-3.429 1.89 1.89 0 0 0-3.046-2.22 140.083 140.083 0 0 0-2.648 3.143c-.481.593-1.006 1.195-1.365 1.873a2.359 2.359 0 1 0 4.29 1.94zm-1.165 2.007a2.407 2.407 0 0 0 .893-4.199v.002a2.359 2.359 0 0 0-4.017.25c-.494.932-.565 2.057.061 2.958A2.635 2.635 0 0 0 34.5 49.64a3.32 3.32 0 0 0 1.078-.115zm0 0c.94-.25 1.806-.749 2.615-1.28a2.363 2.363 0 0 0-2.465-4.029c-.435.248-.9.526-1.39.657a2.407 2.407 0 1 0 1.24 4.652zm2.615-1.28c1.361-.893 2.683-1.849 4.006-2.797a2.236 2.236 0 0 0-2.514-3.696c-1.304.841-2.608 1.696-3.957 2.464a2.363 2.363 0 1 0 2.465 4.03zm4.006-2.797a229.204 229.204 0 0 0 5.309-3.916 1.94 1.94 0 0 0-2.132-3.232 116.462 116.462 0 0 0-5.69 3.452 2.236 2.236 0 1 0 2.513 3.696zm5.309-3.916c1.093-.832 2.18-1.684 3.319-2.454a1.608 1.608 0 0 0-1.49-2.828c-.548.215-1.076.485-1.598.756a74.43 74.43 0 0 0-2.363 1.294 1.94 1.94 0 1 0 2.132 3.232zm3.319-2.454 1.046-.709a1.468 1.468 0 0 0-1.36-2.581l-1.176.462a1.608 1.608 0 1 0 1.49 2.828zm.011-.47c.509.1 1.032-.082 1.369-.476.32-.373.47-.864.35-1.354a1.457 1.457 0 0 0-.214-.476c-.414-.603-1.178-.77-1.83-.514a1.468 1.468 0 0 0 .326 2.819v.001zm.645.37.724-.846a1.439 1.439 0 1 0-2.285-1.74l-.622.922a1.375 1.375 0 0 0 2.183 1.663zm-1.655 2.266c.523-.772 1.048-1.557 1.655-2.267a1.375 1.375 0 1 0-2.183-1.663c-.526.78-1.137 1.505-1.738 2.226a1.42 1.42 0 1 0 2.266 1.704zm-1.585 2.888c.413-1.02.97-1.978 1.585-2.888a1.42 1.42 0 0 0-2.266-1.704 43.07 43.07 0 0 1-2.34 2.612 1.841 1.841 0 1 0 3.02 1.98zm-.933 2.546a35.11 35.11 0 0 1 .933-2.546 1.841 1.841 0 0 0-3.021-1.98c-.76.774-1.477 1.595-2.089 2.49a2.348 2.348 0 1 0 4.177 2.036zm-.238 1.014c.021-.349.133-.681.238-1.014a2.348 2.348 0 0 0-4.177-2.035c-.532.778-1.069 1.633-1.182 2.588a2.572 2.572 0 1 0 5.121.46zm-2.065 2.86a2.614 2.614 0 0 0 1.421-4.727v.001a2.572 2.572 0 0 0-4.477 1.405c-.095.807.114 1.635.634 2.268.59.718 1.501 1.093 2.422 1.052zm0 0c.969-.044 1.854-.528 2.658-1.031a2.617 2.617 0 1 0-2.775-4.437c-.11.068-.22.135-.333.198-.151.085-.244.102-.425.157a2.614 2.614 0 0 0 .875 5.112zm2.658-1.031c1.07-.67 2.117-1.378 3.163-2.084a2.552 2.552 0 0 0-2.745-4.3c-1.068.643-2.136 1.285-3.193 1.947a2.617 2.617 0 0 0 2.775 4.437zm3.163-2.084a158.23 158.23 0 0 0 4.969-3.516 2.416 2.416 0 0 0-2.774-3.955 119.972 119.972 0 0 1-4.94 3.17 2.552 2.552 0 1 0 2.745 4.301zm4.969-3.516a70.066 70.066 0 0 1 5.404-3.597 2.197 2.197 0 0 0-2.08-3.864 49.208 49.208 0 0 0-6.098 3.506 2.416 2.416 0 1 0 2.774 3.955zm5.404-3.597c.73-.437 1.468-.867 2.227-1.252.34-.174.7-.372 1.072-.47a2.014 2.014 0 0 0-.905-3.924c-.65.128-1.278.37-1.89.618-.875.356-1.733.754-2.584 1.164a2.197 2.197 0 1 0 2.08 3.864zm1.89-1.867a1.758 1.758 0 0 0 3.287-.006c.282-.748.417-1.575.112-2.34a2.375 2.375 0 0 0-1.45-1.362 2.83 2.83 0 0 0-1.445-.071 2.014 2.014 0 0 0-.504 3.78v-.001zm-.605 7.186c.883-1.4 1.747-2.814 2.538-4.268.524-.964 1.043-1.955 1.382-3.003a1.758 1.758 0 1 0-3.422-.713c-.091.924-.306 1.839-.519 2.74-.37 1.57-.799 3.127-1.243 4.678a.699.699 0 0 0 1.264.566z" fill="#000"/></g></g><mask id="e" style="mask-type:luminance" maskUnits="userSpaceOnUse" x="23" y="1" width="13" height="9"><path d="M23.932 9.427h11.474V1H23.932v8.427z" fill="#fff"/></mask><g mask="url(#e)"><mask id="f" style="mask-type:luminance" maskUnits="userSpaceOnUse" x="23" y="1" width="13" height="9"><path d="M23.932 9.427h11.474V1H23.932v8.427z" fill="#fff"/></mask><g mask="url(#f)"><path d="M32.656 6.982c1.027-.954 2.038-2.035 2.633-3.322a1.267 1.267 0 0 0-1.872-1.572c-.938.651-1.963 1.181-2.982 1.691a1.969 1.969 0 1 0 2.22 3.203zm-3.402 1.982a7.044 7.044 0 0 0 3.511-2.092 1.969 1.969 0 0 0-2.189-3.157 4.087 4.087 0 0 1-1.77.306 2.509 2.509 0 1 0 .448 4.943zm-.107.023a2.509 2.509 0 0 0-.448-4.97c-.25-.12-.457-.355-.639-.556-.505-.558-.924-1.196-1.313-1.839a1.291 1.291 0 0 0-2.39.545c-.136 1.414-.137 2.917.402 4.255.332.823.883 1.558 1.634 2.042.812.522 1.807.71 2.754.523z" fill="#000"/></g></g></svg>